<svg width="25" height="24" viewBox="0 0 25 24" fill="none" xmlns="http://www.w3.org/2000/svg">
<path d="M14.5866 2.40002H10.7466C7.04101 2.40002 4.02661 5.41442 4.02661 9.12002V12C4.02636 13.2721 4.38706 14.5182 5.06679 15.5934C5.74652 16.6687 6.71739 17.529 7.86661 18.0744V21.2832C7.86661 21.5616 8.21461 21.7056 8.41141 21.5088L11.2002 18.7224H14.5866C18.2922 18.7224 21.3066 15.708 21.3066 12V9.12002C21.3066 5.41442 18.2922 2.40002 14.5866 2.40002ZM17.1018 14.9955L16.1298 15.9459C15.1074 16.9467 12.4386 15.8043 10.0866 13.4019C7.73461 10.9971 6.70261 8.30426 7.67461 7.30346L8.64661 6.35306C9.00421 6.00266 9.61141 6.00986 10.0122 6.36746L11.4138 7.80026C11.913 8.31146 11.7018 9.16826 11.0418 9.36506C10.5858 9.51146 10.2762 10.0131 10.4226 10.4691C10.665 11.5347 12.0162 12.8667 13.0242 13.1307C13.4778 13.2363 13.9866 12.9891 14.145 12.5355C14.3538 11.8803 15.2154 11.6859 15.717 12.1995L17.1162 13.6299C17.4666 13.9872 17.4618 14.5947 17.1018 14.9955ZM13.5402 6.96002C13.4442 6.96002 13.3482 6.96482 13.2546 6.97682C13.0794 6.99602 12.921 6.86882 12.9018 6.69362C12.8826 6.51842 13.0098 6.36002 13.185 6.34082C13.3026 6.32642 13.4226 6.32162 13.5402 6.32162C15.3042 6.32162 16.7394 7.75682 16.7394 9.52082C16.7394 9.63842 16.7346 9.75842 16.7202 9.87602C16.701 10.0488 16.5402 10.1784 16.3674 10.1592C16.1946 10.14 16.065 9.97922 16.0842 9.80642C16.0938 9.71282 16.101 9.61682 16.101 9.52082C16.101 8.10962 14.9514 6.96002 13.5402 6.96002ZM15.4602 9.52082C15.4602 9.69602 15.3138 9.84002 15.1386 9.84002C14.9658 9.84002 14.8194 9.69602 14.8194 9.52082C14.8194 8.81522 14.2458 8.24162 13.5402 8.24162C13.3626 8.24162 13.2186 8.09762 13.2186 7.92002C13.2186 7.74482 13.3626 7.60082 13.5402 7.60082C14.5986 7.60082 15.4602 8.46242 15.4602 9.52082ZM17.901 10.5552C17.8602 10.728 17.6754 10.836 17.505 10.7904C17.3394 10.7448 17.2386 10.572 17.277 10.4064C17.3466 10.1184 17.3802 9.82082 17.3802 9.52082C17.3802 7.40402 15.657 5.68082 13.5402 5.68082C13.4418 5.68082 13.341 5.68322 13.2426 5.69282C13.0674 5.70482 12.9138 5.57282 12.8994 5.39762C12.8874 5.22002 13.0194 5.06642 13.1946 5.05442C13.3098 5.04482 13.425 5.04002 13.5402 5.04002C16.0098 5.04002 18.021 7.05122 18.021 9.52082C18.021 9.86882 17.9802 10.2168 17.901 10.5552Z" fill="white"/>
</svg>
